<?xml version="1.0" standalone="no"?>
<!DOCTYPE svg PUBLIC "-//W3C//DTD SVG 20010904//EN"
 "http://www.w3.org/TR/2001/REC-SVG-20010904/DTD/svg10.dtd">
<svg version="1.0" xmlns="http://www.w3.org/2000/svg"
 width="1920.000000pt" height="500.000000pt" viewBox="0 0 1920.000000 500.000000"
 preserveAspectRatio="xMidYMid meet">

<g transform="translate(0.000000,500.000000) scale(0.100000,-0.100000)"
fill="#000000" stroke="none">
<path d="M2528 3602 c-14 -23 -15 -39 -8 -97 5 -39 9 -123 10 -187 0 -108 2
-118 18 -118 17 0 20 13 27 123 14 211 13 263 -6 286 -22 26 -21 26 -41 -7z"/>
<path d="M2432 3373 c-13 -24 -15 -86 -6 -145 5 -28 11 -38 25 -38 11 0 19 3
18 8 0 4 -6 50 -13 102 -11 83 -14 92 -24 73z"/>
<path d="M2646 3357 c-4 -17 -9 -63 -11 -100 -3 -60 -2 -68 13 -65 12 2 21 23
31 74 14 68 14 73 -6 98 l-21 26 -6 -33z"/>
<path d="M1640 3295 c0 -4 7 -19 15 -35 18 -35 303 -270 327 -270 21 0 24 26
4 37 -8 4 -69 61 -136 127 -67 65 -138 124 -156 132 -35 15 -54 18 -54 9z"/>
<path d="M3405 3286 c-34 -15 -310 -273 -310 -289 0 -26 37 -16 77 20 24 22
91 79 151 127 106 87 127 110 127 140 0 19 -6 19 -45 2z"/>
<path d="M2210 3213 c0 -25 23 -73 36 -73 20 0 17 11 -11 50 -14 19 -25 29
-25 23z"/>
<path d="M2336 3204 c-10 -25 -7 -34 9 -34 8 0 15 9 15 19 0 26 -16 35 -24 15z"/>
<path d="M2747 3213 c-15 -15 -6 -43 13 -43 11 0 20 3 20 8 -1 14 -27 42 -33
35z"/>
<path d="M2857 3182 c-21 -23 -22 -42 -2 -42 8 0 17 11 21 25 8 34 1 40 -19
17z"/>
<path d="M1925 3169 c73 -85 124 -132 139 -126 9 4 16 11 16 16 0 16 -90 110
-113 116 -12 4 -31 9 -42 12 l-20 6 20 -24z"/>
<path d="M3133 3177 c-31 -12 -113 -95 -113 -115 0 -16 18 -24 33 -15 27 16
139 143 126 142 -8 0 -28 -6 -46 -12z"/>
<path d="M2120 3115 c13 -16 50 -21 50 -6 0 10 -24 21 -47 21 -13 0 -13 -3 -3
-15z"/>
<path d="M2940 3120 c-13 -9 -13 -11 0 -19 9 -6 19 -6 27 1 28 23 5 39 -27 18z"/>
<path d="M1760 3067 c0 -2 7 -20 15 -40 16 -38 113 -111 142 -105 40 8 22 25
-137 137 -11 7 -20 11 -20 8z"/>
<path d="M3299 3047 c-15 -12 -52 -40 -83 -62 -31 -22 -56 -43 -56 -48 0 -43
133 27 156 82 19 46 14 54 -17 28z"/>
<path d="M2450 3021 c0 -14 6 -17 25 -13 16 3 25 0 25 -9 0 -7 2 -10 5 -7 13
13 -7 35 -27 30 -14 -3 -19 -1 -14 6 4 7 2 12 -3 12 -6 0 -11 -8 -11 -19z"/>
<path d="M2532 3018 c2 -12 8 -23 14 -25 7 -2 10 6 7 22 -6 30 -26 34 -21 3z"/>
<path d="M2587 3010 c-3 -11 -1 -20 4 -20 5 0 9 9 9 20 0 11 -2 20 -4 20 -2 0
-6 -9 -9 -20z"/>
<path d="M2648 3023 c6 -2 12 -9 12 -14 0 -6 -4 -7 -10 -4 -5 3 -15 3 -22 -1
-8 -5 -2 -11 17 -16 16 -4 31 -6 33 -3 10 9 -11 45 -26 44 -11 0 -12 -3 -4 -6z"/>
<path d="M2710 3011 c0 -5 -3 -18 -6 -28 -4 -14 -4 -15 4 -4 8 11 12 10 21 -8
16 -28 28 -27 34 5 3 19 1 24 -10 20 -7 -3 -16 1 -19 9 -7 16 -24 21 -24 6z"/>
<path d="M2322 2972 c-15 -32 -12 -35 15 -12 18 14 20 20 10 28 -9 8 -15 4
-25 -16z"/>
<path d="M2790 2959 c-12 -9 -11 -10 8 -6 12 3 20 1 17 -3 -3 -5 -1 -11 5 -15
5 -3 10 3 10 14 0 23 -16 27 -40 10z"/>
<path d="M2220 2948 c0 -15 13 -38 22 -38 5 0 6 5 3 10 -3 6 1 13 9 16 24 9
19 19 -9 19 -14 0 -25 -3 -25 -7z"/>
<path d="M2190 2928 c0 -18 18 -34 28 -24 3 4 -2 14 -11 23 -16 16 -17 16 -17
1z"/>
<path d="M2167 2906 c5 -16 3 -18 -11 -13 -13 5 -19 1 -23 -13 -3 -11 -10 -20
-17 -20 -15 0 16 -20 32 -20 9 0 10 5 2 19 -14 26 -13 38 2 23 14 -14 38 -16
38 -4 0 5 -7 17 -15 28 -15 19 -15 19 -8 0z"/>
<path d="M2913 2894 c-7 -3 -4 -13 10 -27 23 -24 38 -17 30 14 -5 19 -16 22
-40 13z"/>
<path d="M3243 2877 c-26 -11 -31 -37 -8 -37 13 0 41 38 33 45 -2 1 -13 -2
-25 -8z"/>
<path d="M1830 2871 c0 -20 13 -41 25 -41 18 0 28 32 13 42 -17 11 -38 10 -38
-1z"/>
<path d="M2971 2846 c-9 -10 -8 -15 4 -20 8 -3 15 -12 15 -21 0 -13 2 -13 14
-3 11 11 11 14 -2 24 -8 6 -12 16 -8 22 10 17 -9 15 -23 -2z"/>
<path d="M1765 2776 c24 -19 68 -21 63 -3 -3 6 -22 13 -44 15 -37 3 -38 2 -19
-12z"/>
<path d="M3016 2775 c-3 -8 -2 -15 3 -15 5 0 14 7 21 15 10 12 10 15 -3 15 -8
0 -17 -7 -21 -15z"/>
<path d="M3277 2783 c-25 -24 18 -32 49 -8 18 14 17 14 -12 15 -17 0 -34 -3
-37 -7z"/>
<path d="M2006 2754 c-3 -9 -2 -12 5 -9 5 4 16 1 24 -5 8 -7 15 -8 15 -4 0 5
-9 15 -19 21 -16 10 -20 9 -25 -3z"/>
<path d="M3057 2749 c-9 -5 -23 -7 -30 -3 -8 6 -8 3 1 -9 11 -13 17 -14 33 -4
10 6 19 15 19 19 0 10 -1 10 -23 -3z"/>
<path d="M3070 2717 c-19 -8 -21 -11 -9 -14 11 -3 15 -11 12 -22 -6 -22 9 -34
31 -25 21 8 21 24 0 24 -8 0 -12 -4 -9 -10 3 -5 1 -10 -4 -10 -18 0 -13 28 7
39 27 15 3 31 -28 18z"/>
<path d="M1996 2693 c7 -26 6 -27 -11 -13 -16 13 -18 13 -13 0 8 -24 38 -25
38 -1 0 12 0 24 1 28 0 4 -5 9 -11 11 -7 3 -9 -5 -4 -25z"/>
<path d="M1745 2680 c-4 -6 5 -10 19 -10 14 0 26 5 26 10 0 6 -9 10 -19 10
-11 0 -23 -4 -26 -10z"/>
<path d="M3300 2680 c0 -5 14 -10 31 -10 17 0 28 4 24 10 -3 6 -17 10 -31 10
-13 0 -24 -4 -24 -10z"/>
<path d="M3430 2620 c-14 -4 -42 -8 -62 -9 -32 -1 -38 -5 -38 -22 0 -17 5 -20
23 -16 12 3 63 9 112 13 l90 7 -40 18 c-44 20 -48 21 -85 9z"/>
<path d="M1575 2606 c-25 -12 -27 -15 -10 -16 11 -2 29 -4 41 -5 147 -16 164
-16 164 -2 0 28 -148 45 -195 23z"/>
<path d="M1980 2535 c-7 -9 -8 -15 -2 -15 6 0 12 -10 14 -22 3 -21 4 -21 9 4
8 36 -4 54 -21 33z"/>
<path d="M3092 2534 c-7 -8 -8 -14 -2 -14 5 0 10 -8 11 -17 0 -14 2 -15 6 -3
3 8 10 18 15 21 5 3 3 11 -4 16 -9 8 -17 7 -26 -3z"/>
<path d="M3330 2503 c0 -21 5 -23 53 -24 28 -1 129 -3 222 -5 161 -4 225 4
225 26 0 20 -52 25 -267 25 l-233 0 0 -22z"/>
<path d="M1285 2507 c-17 -13 -16 -15 11 -24 29 -10 407 -8 452 2 12 3 22 9
22 14 0 24 -453 31 -485 8z"/>
<path d="M1610 2416 l-65 -11 43 -14 c35 -12 54 -12 112 -2 41 8 70 18 70 25
0 15 -77 17 -160 2z"/>
<path d="M3320 2415 c0 -20 48 -35 114 -35 62 0 145 24 131 38 -13 13 -245 10
-245 -3z"/>
<path d="M3094 2390 c-4 -16 -12 -30 -18 -30 -6 0 -3 -5 7 -11 30 -17 44 -5
39 35 -5 44 -20 47 -28 6z"/>
<path d="M1978 2380 l-17 -30 30 0 c25 0 28 3 21 18 -5 9 -11 23 -13 29 -2 7
-12 -1 -21 -17z"/>
<path d="M3300 2319 c0 -22 9 -24 45 -7 35 16 31 26 -10 26 -28 0 -35 -4 -35
-19z"/>
<path d="M1754 2315 c25 -19 36 -19 36 0 0 10 -10 15 -27 15 -27 -1 -27 -1 -9
-15z"/>
<path d="M3270 2235 c0 -7 12 -16 28 -19 15 -4 36 -9 47 -13 18 -5 19 -4 5 11
-23 23 -80 39 -80 21z"/>
<path d="M1764 2226 c-10 -8 -16 -17 -12 -21 8 -8 78 16 78 27 0 13 -45 9 -66
-6z"/>
<path d="M3227 2174 c-15 -15 -6 -34 23 -49 l29 -15 -13 32 c-14 33 -27 44
-39 32z"/>
<path d="M1847 2164 c-4 -4 -7 -16 -7 -26 0 -16 3 -17 21 -8 11 6 19 16 16 23
-4 14 -21 20 -30 11z"/>
<path d="M2105 2110 c-14 -29 -24 -54 -22 -57 3 -2 29 8 57 22 46 23 52 24 45
8 -21 -52 -27 -75 -21 -81 8 -8 72 26 89 47 8 10 -2 7 -27 -7 -21 -13 -41 -21
-43 -18 -2 2 3 18 11 35 9 16 16 35 16 41 0 17 -40 11 -67 -10 -15 -11 -28
-19 -30 -17 -2 2 4 21 12 42 24 57 10 54 -20 -5z"/>
<path d="M2904 2095 c10 -39 25 -75 32 -75 3 0 15 11 26 25 11 15 30 25 46 26
23 1 20 4 -23 24 -68 32 -89 32 -81 0z m50 -1 c20 -8 21 -30 1 -38 -8 -3 -19
3 -25 14 -17 31 -10 37 24 24z"/>
<path d="M1846 2047 c-53 -38 -81 -76 -74 -99 3 -7 55 27 142 95 18 14 27 28
22 35 -11 19 -27 13 -90 -31z"/>
<path d="M3164 2079 c-7 -11 34 -49 116 -105 35 -24 50 -30 50 -20 0 33 -25
63 -81 99 -65 40 -74 43 -85 26z"/>
<path d="M3100 2020 c-12 -8 13 -37 130 -149 143 -138 221 -192 219 -153 -1
40 -24 63 -203 206 -22 17 -59 48 -82 69 -46 42 -44 40 -64 27z"/>
<path d="M1930 1986 c-25 -19 -52 -41 -60 -48 -9 -7 -58 -48 -110 -92 -81 -67
-131 -128 -117 -143 10 -10 96 39 127 72 19 20 79 75 133 122 59 52 97 93 97
104 0 28 -19 23 -70 -15z"/>
<path d="M2517 1983 c-3 -15 -1 -43 6 -60 9 -28 16 -33 42 -32 30 2 30 2 3 6
-22 3 -28 10 -28 29 0 22 4 25 33 22 26 -2 32 -7 31 -25 0 -13 5 -23 13 -23
14 0 18 32 6 44 -5 4 -8 20 -8 34 0 25 -4 27 -46 30 -44 3 -47 1 -52 -25z m81
0 c-2 -12 -13 -18 -33 -18 -20 0 -31 6 -33 18 -3 14 4 17 33 17 29 0 36 -3 33
-17z"/>
<path d="M2007 1923 c-58 -60 -97 -104 -97 -108 0 -1 20 2 44 9 34 8 53 23 85
61 23 27 41 55 41 62 0 25 -38 12 -73 -24z"/>
<path d="M3020 1950 c0 -6 16 -32 36 -59 27 -35 47 -52 76 -60 22 -7 42 -10
45 -7 10 9 -120 136 -139 136 -10 0 -18 -5 -18 -10z"/>
<path d="M2119 1889 c-10 -20 -9 -21 23 -14 39 9 42 11 33 24 -11 18 -44 12
-56 -10z"/>
<path d="M2935 1901 c-6 -10 25 -31 44 -31 8 0 7 7 -1 20 -14 21 -33 26 -43
11z"/>
<path d="M2220 1834 c-7 -19 -10 -38 -7 -41 9 -9 47 37 47 57 0 33 -28 22 -40
-16z"/>
<path d="M2840 1851 c0 -11 11 -32 25 -47 27 -29 30 -22 19 35 -7 36 -44 45
-44 12z"/>
<path d="M2330 1831 c0 -17 12 -41 21 -41 5 0 9 11 9 25 0 16 -6 25 -15 25 -8
0 -15 -4 -15 -9z"/>
<path d="M2740 1823 c0 -10 4 -24 9 -32 7 -11 11 -10 20 7 16 30 14 42 -9 42
-12 0 -20 -7 -20 -17z"/>
<path d="M2427 1813 c-2 -5 -5 -42 -6 -83 -1 -54 3 -82 14 -95 14 -19 14 -18
15 13 0 19 7 58 16 88 9 31 13 62 10 70 -6 15 -42 20 -49 7z"/>
<path d="M2637 1813 c-3 -5 -3 -37 -1 -73 1 -36 3 -76 3 -89 1 -40 13 -44 33
-10 16 26 18 42 12 83 -10 80 -30 117 -47 89z"/>
<path d="M2536 1768 c-3 -24 -8 -113 -11 -199 -4 -129 -3 -158 10 -175 14 -18
16 -18 29 -1 20 26 31 188 17 261 -6 33 -11 81 -11 108 0 35 -4 48 -14 48 -10
0 -17 -15 -20 -42z"/>
</g>
</svg>
